{"title":"The Transporter 2002 720p BRRip XviD AC3-LEGi0N","uid":7979678,"size":9866645504,"categoryP":"video","categoryS":"hd___movies","magnet":"?xt=urn:btih:c955a408d59505ac972218753b1675580becd7f6&amp;dn=The+Transporter+2002+720p+BRRip+XviD+AC3-LEGi0N&amp;tr=udp%3A%2F%2Ftracker.openbittorrent.com%3A80&amp;tr=udp%3A%2F%2Fopen.demonii.com%3A1337&amp;tr=udp%3A%2F%2Ftracker.coppersurfer.tk%3A6969&amp;tr=udp%3A%2F%2Fexodus.desync.com%3A6969","seeders":0,"leechers":1,"uploader":"maximersk","files":3,"time":1357136904,"description":"The Transporter 2002 720p BRRip XviD AC3-LEGi0N\n\n\nGeneral\nFormat: AVI\nFile size: 3.03 GiB\nDuration: 1h 32mn\nOverall bit rate: 4 708 Kbps\nIMDb Rating: 6.6/10 48,807 votes\nGenre: Action | Crime | Thriller\nRelease Date: 11 October 2002 \nVideo\nFormat: MPEG-4 Visual\nFormat settings, BVOP: Yes\nFormat settings, QPel: No\nFormat settings, GMC: No warppoints\nFormat settings, Matrix: Default (H.263)\nMuxing mode: Packed bitstream\nCodec ID: XVID\nBit rate: 4 250 Kbps\nWidth: 1 280 pixels\nHeight: 544 pixels\nDisplay aspect ratio: 2.35\nFrame rate: 23.976 fps\nResolution: 24 bits\nColorimetry: 4:2:0\nScan type: Progressive\nBits/(Pixel*Frame): 0.255\nStream size: 2.74 GiB (90%) \nAudio\nFormat: AC-3\nBit rate mode: Constant\nBit rate: 448 Kbps\nChannel(s): 6 channels\nSampling rate: 48.0 KHz\nStream size: 295 MiB (10%) \n\n\n\n\n\n\nTransporter 2 2005 720p BRRip XviD AC3-LEGi0N\n\n\nGeneral\nFormat: AVI\nFile size: 2.84 GiB\nDuration: 1h 27mn\nOverall bit rate: 4 631 Kbps\nIMDb Rating: 6.1/10 37,785 votes\nGenre: Action | Crime | Thriller\nRelease Date: 2 September 2005 \nVideo\nFormat: MPEG-4 Visual\nFormat settings, BVOP: Yes\nFormat settings, QPel: No\nFormat settings, GMC: No warppoints\nFormat settings, Matrix: Default (H.263)\nMuxing mode: Packed bitstream\nCodec ID: XVID\nBit rate: 4 173 Kbps\nWidth: 1 280 pixels\nHeight: 544 pixels\nDisplay aspect ratio: 2.35\nFrame rate: 23.976 fps\nResolution: 24 bits\nColorimetry: 4:2:0\nScan type: Progressive\nBits/(Pixel*Frame): 0.250\nStream size: 2.55 GiB (90%) \nAudio\nFormat: AC-3\nBit rate mode: Constant\nBit rate: 448 Kbps\nChannel(s): 6 channels\nSampling rate: 48.0 KHz\nStream size: 281 MiB (10%) \n\n\n\n\n\n\nTransporter 3 2008 720p BRRip XviD AC3-LEGi0N\n\n\nGeneral\nFormat: AVI\nFile size: 3.32 GiB\nDuration: 1h 43mn\nOverall bit rate: 4 576 Kbps\nIMDb Rating: 5.9/10 28,948 votes\nGenre: Action | Adventure | Crime | Thriller\nRelease Date: 26 November 2008 \nVideo\nFormat: MPEG-4 Visual\nFormat settings, BVOP: Yes\nFormat settings, QPel: No\nFormat settings, GMC: No warppoints\nFormat settings, Matrix: Default (H.263)\nMuxing mode: Packed bitstream\nCodec ID: XVID\nBit rate: 4 118 Kbps\nWidth: 1 280 pixels\nHeight: 544 pixels\nDisplay aspect ratio: 2.35\nFrame rate: 23.976 fps\nResolution: 24 bits\nColorimetry: 4:2:0\nScan type: Progressive\nBits/(Pixel*Frame): 0.247\nStream size: 2.99 GiB (90%) \nAudio\nFormat: AC-3\nBit rate mode: Constant\nBit rate: 448 Kbps\nChannel(s): 6 channels\nSampling rate: 48.0 KHz\nStream size: 333 MiB (10%) ","torrent":{"xt":"urn:btih:c955a408d59505ac972218753b1675580becd7f6","amp;dn":"The+Transporter+2002+720p+BRRip+XviD+AC3-LEGi0N","amp;tr":["udp%3A%2F%2Ftracker.openbittorrent.com%3A80","udp%3A%2F%2Fopen.demonii.com%3A1337","udp%3A%2F%2Ftracker.coppersurfer.tk%3A6969","udp%3A%2F%2Fexodus.desync.com%3A6969"],"infoHash":"c955a408d59505ac972218753b1675580becd7f6","infoHashBuffer":{"type":"Buffer","data":[201,85,164,8,213,149,5,172,151,34,24,117,59,22,117,88,11,236,215,246]},"announce":[],"urlList":[]}}